<?xml version='1.0' encoding='utf-8'?>
<svg xmlns="http://www.w3.org/2000/svg" viewBox="0 0 3840 2160"> <defs> <style>.cls-1, .cls-2, .cls-3, .cls-4, .cls-5, .cls-6, .cls-7, .cls-8, .cls-9 { fill: none; stroke-linecap: round; stroke-linejoin: round; stroke-width: 40px; } .cls-1 { stroke: #7fb01e; } .cls-1, .cls-11, .cls-12, .cls-2, .cls-3, .cls-4, .cls-5, .cls-6, .cls-7, .cls-8, .cls-9 { fill-rule: evenodd; } .cls-2 { stroke: #afc77d; } .cls-3 { stroke: #f49ac1; } .cls-4 { stroke: #c43272; } .cls-5 { stroke: #ffca00; } .cls-6 { stroke: #df6d28; } .cls-7 { stroke: #f68e56; } .cls-8 { stroke: #005e63; } .cls-9 { stroke: #afd7f8; } .cls-10 { fill: #00adbc; } .cls-11 { fill: #f26e79; } .cls-12 { fill: #9492cd; } .cls-13 { fill: #ffca00; }</style> </defs> <path class="cls-1" d="m988.4 1282.6s-97.3 124.79 18.037 177.24 100.19-35.09 85.54-69.38-160.24 2.66-86.13 176.35"/> <path class="cls-2" d="m2856.1 861.12s39.75-89.229-37.15-103.52-54.82 35.909-40.94 54.281 95.62-25.4 25.4-118.46" data-name="Shape 1 copy"/> <path class="cls-3" d="m2224.3 1843.8s127.86 51.23 142.2-61.16-54.31-76.85-79.01-55.44 42.61 136.68 167.73 28.36" data-name="Shape 1 copy 2"/> <path class="cls-4" d="m1200.2 388.43s8.07 55.859-49.84 71.854-31.43 78.679-12.82 92.779 33.67 58.866-25.62 77.807"/> <path class="cls-5" d="m1562 1781.1s-22.78 51.64-80.36 34.49-68.37 50.04-60.07 71.87-2.66 67.76-62.97 52.38" data-name="Shape 2 copy 4"/> <path class="cls-6" d="m1836.3 366.48s-56.41-1.825-62.03-61.64-71.97-44.7-89.11-28.843-63.84 22.86-72.12-38.829" data-name="Shape 2 copy"/> <path class="cls-7" d="m2379.4 379.55s46.77-31.6 86.4 13.555 84.51-5.993 89.09-28.889 38.31-55.956 81.19-10.843" data-name="Shape 2 copy 2"/> <path class="cls-8" d="m2792.9 1683.4s-5.97 56.12-66.03 57.33-49.88 68.49-35.32 86.75 18.1 65.35-44.03 69.08" data-name="Shape 2 copy 3"/> <path class="cls-9" d="m2919.8 1248.9s-108.21 23.08-80.74 94.05 64.43 22.08 74.84-0.5-76.16-61.54-128.93 52.76" data-name="Shape 1 copy 3"/> <circle class="cls-10" cx="1109" cy="1054" r="26"/> <circle class="cls-10" cx="1725" cy="136" r="26" data-name="Ellipse 1 copy"/> <circle class="cls-10" cx="2508" cy="518" r="26" data-name="Ellipse 1 copy 2"/> <circle class="cls-10" cx="2764" cy="1054" r="26" data-name="Ellipse 1 copy 3"/> <circle class="cls-10" cx="2852" cy="1816" r="26" data-name="Ellipse 1 copy 4"/> <circle class="cls-10" cx="2962" cy="1580" r="26" data-name="Ellipse 1 copy 7"/> <circle class="cls-10" cx="2070" cy="1873" r="26" data-name="Ellipse 1 copy 6"/> <circle class="cls-10" cx="1637" cy="1855" r="26" data-name="Ellipse 1 copy 5"/> <path class="cls-11" d="M985.2,871.381l31.8,44.875a10,10,0,0,1-2.38,13.941L969.744,962a10,10,0,0,1-13.941-2.378L924,914.744a10,10,0,0,1,2.378-13.941L971.256,869A10,10,0,0,1,985.2,871.381Z" data-name="Rounded Rectangle 1"/> <path class="cls-11" d="m2010.2 287.38 31.8 44.875a10 10 0 0 1-2.38 13.941l-44.88 31.803a10 10 0 0 1-13.94-2.378l-31.8-44.878a10 10 0 0 1 2.38-13.941l44.88-31.8a10 10 0 0 1 13.94 2.378z" data-name="Rounded Rectangle 1 copy"/> <path class="cls-11" d="m2720.2 408.38 31.8 44.875a10 10 0 0 1-2.38 13.941l-44.88 31.803a10 10 0 0 1-13.94-2.378l-31.8-44.878a10 10 0 0 1 2.38-13.941l44.88-31.8a10 10 0 0 1 13.94 2.378z" data-name="Rounded Rectangle 1 copy 2"/> <path class="cls-11" d="m1935.2 1968.4 31.8 44.88a10 10 0 0 1-2.38 13.94l-44.88 31.8a10 10 0 0 1-13.94-2.38l-31.8-44.88a10 10 0 0 1 2.38-13.94l44.88-31.8a10 10 0 0 1 13.94 2.38z" data-name="Rounded Rectangle 1 copy 3"/> <path class="cls-11" d="m1292.2 226.38 31.8 44.875a10 10 0 0 1-2.38 13.941l-44.88 31.803a10 10 0 0 1-13.94-2.378l-31.8-44.878a10 10 0 0 1 2.38-13.941l44.88-31.8a10 10 0 0 1 13.94 2.378z" data-name="Rounded Rectangle 1 copy 5"/> <path class="cls-11" d="m3025.2 937.38 31.8 44.875a10 10 0 0 1-2.38 13.941l-44.88 31.8a10 10 0 0 1-13.94-2.38l-31.8-44.873a10 10 0 0 1 2.38-13.941l44.88-31.8a10 10 0 0 1 13.94 2.378z" data-name="Rounded Rectangle 1 copy 4"/> <path class="cls-12" d="m1265 1632s10.72 0.97 16 42 21.15-58.64 45-40-36.18-38.59-25-60-49.79 35.94-36 58z"/> <path class="cls-12" d="m806 1480s10.717 0.97 16 42 21.149-58.64 45-40-36.181-38.59-25-60-49.794 35.94-36 58z" data-name="Shape 3 copy 10"/> <path class="cls-12" d="m886 694s10.717 0.97 16 42 21.149-58.643 45-40-36.181-38.589-25-60-49.794 35.937-36 58z" data-name="Shape 3 copy"/> <path class="cls-12" d="m1388.4 483.28s5.77 9.089-23.55 38.278 59.39-18.962 59.14 11.31 8.55-52.2 32.34-56.381-58.84-17.591-67.93 6.793z" data-name="Shape 3 copy 7"/> <path class="cls-12" d="m2241.4 292.53s9.11 5.721-4.77 44.69 45.43-42.691 58.24-15.262-14.77-50.8 4.9-64.815-60.67 9.468-58.37 35.387z" data-name="Shape 3 copy 8"/> <path class="cls-12" d="m2073 160s10.72 0.97 16 42 21.15-58.643 45-40-36.18-38.589-25-60-49.79 35.937-36 58z" data-name="Shape 3 copy 2"/> <path class="cls-12" d="m2826 402s10.72 0.97 16 42 21.15-58.643 45-40-36.18-38.589-25-60-49.79 35.937-36 58z" data-name="Shape 3 copy 3"/> <path class="cls-12" d="m2670 1585s10.72 0.97 16 42 21.15-58.64 45-40-36.18-38.59-25-60-49.79 35.94-36 58z" data-name="Shape 3 copy 4"/> <path class="cls-12" d="m3003 735s10.72 0.97 16 42 21.15-58.643 45-40-36.18-38.589-25-60-49.79 35.937-36 58z" data-name="Shape 3 copy 9"/> <path class="cls-12" d="m2518 1962s10.72 0.97 16 42 21.15-58.64 45-40-36.18-38.59-25-60-49.79 35.94-36 58z" data-name="Shape 3 copy 5"/> <path class="cls-12" d="m1683 2001s10.72 0.97 16 42 21.15-58.64 45-40-36.18-38.59-25-60-49.79 35.94-36 58z" data-name="Shape 3 copy 6"/> <circle class="cls-13" cx="1468.5" cy="279.5" r="55.5"/> <circle class="cls-13" cx="2478.5" cy="210.5" r="55.5" data-name="Ellipse 2 copy"/> <circle class="cls-13" cx="3058.5" cy="1193.5" r="55.5" data-name="Ellipse 2 copy 2"/> <circle class="cls-13" cx="866.5" cy="1138.5" r="55.5" data-name="Ellipse 2 copy 7"/> <circle class="cls-13" cx="2646.5" cy="638.5" r="55.5" data-name="Ellipse 2 copy 3"/> <circle class="cls-13" cx="2323.5" cy="2012.5" r="55.5" data-name="Ellipse 2 copy 4"/> <circle class="cls-13" cx="1108.5" cy="1759.5" r="55.5" data-name="Ellipse 2 copy 5"/> <circle class="cls-13" cx="1163.5" cy="832.5" r="55.5" data-name="Ellipse 2 copy 6"/> </svg>